<?xml version="1.0" encoding="UTF-8"?>
<svg version="1.1" xmlns="http://www.w3.org/2000/svg" width="1024" height="1024">
<path d="M0 0 C0.8345874 0.67651611 0.8345874 0.67651611 1.68603516 1.36669922 C31.06514866 25.28633588 55.18441557 60.72629964 60 99 C60.63819496 105.52669489 61.08390828 112.06811792 61.54296875 118.609375 C64.29075228 157.73781247 75.9643863 184.35276444 103.96792603 212.18151855 C105.48494135 213.69653888 107.00150794 215.21200865 108.51766717 216.72788572 C112.66372741 220.87067048 116.81596901 225.00721013 120.96925449 229.14274955 C125.45559425 233.61217145 129.93605342 238.08748143 134.41716003 242.56214905 C142.17660814 250.3090216 149.93948525 258.05244154 157.70451736 265.79371643 C169.45973757 277.51318248 181.20644821 289.24115526 192.95144652 300.97086429 C197.67030519 305.68350567 202.38943729 310.39587326 207.10857201 315.10823822 C207.63277828 315.63169495 208.15698455 316.15515168 208.69707586 316.69447074 C221.16055806 329.14002779 233.6267375 341.58288178 246.09375 354.02490234 C246.63889598 354.56895951 247.18404196 355.11301668 247.74570751 355.67356043 C260.4677746 368.37017247 273.19112686 381.06549491 285.91668701 393.75860596 C286.46427186 394.30479643 287.01185672 394.85098691 287.57603505 395.41372861 C290.33742237 398.16808033 293.09881869 400.92242303 295.86021547 403.67676526 C296.40600155 404.22115778 296.95178764 404.7655503 297.51411269 405.32643957 C298.61573095 406.42524432 299.71735072 407.52404756 300.81897201 408.62284928 C319.02787051 426.78522693 337.2299522 444.95441403 355.42457199 463.13109605 C357.9948017 465.69877277 360.56512362 468.26635717 363.13550949 470.83387756 C363.64133525 471.33914063 364.14716101 471.8444037 364.66831483 472.36497777 C372.79935375 480.48651426 380.93776859 488.60062052 389.07917175 496.71176602 C397.26175328 504.86416788 405.43705341 513.02379783 413.60542251 521.1904434 C418.02849533 525.61210889 422.454786 530.03042378 426.88990974 534.44000435 C430.95222435 538.47904541 435.00515127 542.52726786 439.05091064 546.58288962 C440.51360301 548.0458838 441.97967658 549.50550721 443.449506 550.96133083 C451.02845333 558.47179218 457.87481756 565.54788049 463 575 C463.93585938 576.71316406 463.93585938 576.71316406 464.890625 578.4609375 C473.314189 596.51834768 475.55762674 618.28198972 469.39453125 637.51171875 C465.26363531 647.84474417 460.55562727 657.71066512 453 666 C452.27296875 666.81855469 451.5459375 667.63710938 450.796875 668.48046875 C437.59173755 682.55884916 418.92878799 691.38863662 399.625 692.3203125 C384.34495098 692.76238162 371.43902957 690.92278186 357.625 684.25 C357.0069751 683.95158203 356.3889502 683.65316406 355.75219727 683.34570312 C343.68265648 677.07447938 334.37037773 666.64315274 324.90077209 657.11436462 C323.38248973 655.59408784 321.86375847 654.07425926 320.34461969 652.55483824 C316.1881759 648.39511534 312.03797946 644.22920845 307.88877308 640.06226814 C303.40637484 635.56296609 298.91810153 631.06953169 294.4304657 626.57545471 C286.6595694 618.79197743 278.89212381 611.00507095 271.1268177 603.21601677 C259.37110369 591.4245627 247.60689522 579.6416059 235.84094713 567.8603649 C231.1145962 563.12779639 226.38851888 558.39495463 221.66244411 553.66211033 C220.87494783 552.87348973 220.87494783 552.87348973 220.07154253 552.06893741 C207.58671401 539.56618009 195.10458628 527.06072777 182.62329102 514.55444336 C182.07745612 514.00751965 181.53162122 513.46059594 180.96924587 512.89709879 C168.23231411 500.13471429 155.49667181 487.37104474 142.76324463 474.60516357 C142.21540419 474.05592876 141.66756376 473.50669395 141.1031221 472.94081566 C138.34049846 470.17115651 135.5778839 467.4014883 132.81526982 464.63181961 C131.99624005 463.8106995 131.99624005 463.8106995 131.16066423 462.97299111 C130.05857545 461.86808882 128.95648819 460.76318503 127.85440245 459.65827972 C109.63772619 441.39508259 91.41424062 423.13870212 73.18325986 404.88978391 C70.60783802 402.31180907 68.0325085 399.73374203 65.45724297 397.15561104 C64.95045025 396.64825563 64.44365753 396.14090021 63.92150745 395.61817039 C55.77481087 387.46197075 47.63554467 379.29839485 39.49923784 371.13183212 C31.32095005 362.92336429 23.13543065 354.72217505 14.94290001 346.52792089 C10.5070647 342.09067824 6.0745801 337.65021721 1.65082932 333.20092392 C-2.40120481 329.12561685 -6.46241994 325.05969642 -10.53103454 321.00094444 C-11.99876921 319.5335116 -13.4631328 318.0626973 -14.92369723 316.58812761 C-40.34443141 290.93634905 -70.47496154 284.38839093 -105.56152344 282.41870117 C-136.70095179 280.62494159 -164.28148112 270.10490293 -189 251 C-189.89332031 250.3296875 -190.78664062 249.659375 -191.70703125 248.96875 C-205.75907023 238.01363715 -218.2934558 224.94457335 -228 210 C-228.42861328 209.34596191 -228.85722656 208.69192383 -229.29882812 208.01806641 C-250.92250742 174.52714433 -258.15746354 133.38737032 -249.859375 94.44140625 C-248.10409063 86.67782822 -246.36081185 79.24093283 -243 72 C-239.75112323 73.42061637 -237.65295124 75.1276118 -235.19644165 77.67071533 C-234.45390137 78.43362885 -233.71136108 79.19654236 -232.94631958 79.98257446 C-231.73853348 81.23885147 -231.73853348 81.23885147 -230.50634766 82.52050781 C-228.73240298 84.34711354 -226.95827531 86.17354157 -225.18399048 87.99981689 C-224.23504582 88.9798867 -223.28617028 89.96002343 -222.33736038 90.94022369 C-219.39594255 93.97567941 -216.43922824 96.99591428 -213.47836304 100.01239014 C-212.97806473 100.52216691 -212.47776643 101.03194369 -211.96230757 101.55716825 C-210.4216151 103.12678032 -208.88072999 104.69620314 -207.33984375 106.265625 C-200.9664344 112.7579504 -194.60472395 119.26049737 -188.28857422 125.80859375 C-183.67831211 130.58793618 -179.04006337 135.33805097 -174.36752355 140.05655169 C-171.89813281 142.55244468 -169.44508297 145.06058383 -167.0255928 147.60495758 C-164.32303944 150.44633612 -161.55908183 153.22280603 -158.78759766 155.99707031 C-158.00264923 156.84268524 -157.21770081 157.68830017 -156.40896606 158.55953979 C-152.7944698 162.08444348 -150.61301187 163.9621874 -145.44179916 164.08341217 C-141.86854251 163.59982868 -138.48551579 162.91599678 -135 162 C-133.69201163 161.67681227 -133.69201163 161.67681227 -132.35759926 161.34709549 C-130.26022226 160.80005273 -128.23436509 160.14976116 -126.1875 159.4375 C-125.44105225 159.18137939 -124.69460449 158.92525879 -123.92553711 158.66137695 C-110.89619475 153.98975751 -99.17320512 147.43986058 -89 138 C-87.61554688 136.75283203 -87.61554688 136.75283203 -86.203125 135.48046875 C-69.94985923 120.14762273 -57.58586324 96.54191321 -56 74 C-56.46565769 69.81702501 -57.61029982 67.89237033 -60.57496643 64.9440155 C-61.34202911 64.17145416 -62.1090918 63.39889282 -62.8993988 62.60292053 C-63.74672073 61.76997971 -64.59404266 60.93703888 -65.46704102 60.07885742 C-66.79862244 58.74639984 -66.79862244 58.74639984 -68.15710449 57.38702393 C-70.58817513 54.95480629 -73.03137526 52.5351133 -75.47694135 50.1174829 C-78.0318904 47.58754976 -80.57550604 45.04627401 -83.12034607 42.50617981 C-87.93953437 37.69942071 -92.76882761 32.9029484 -97.60183519 28.11008865 C-103.10419571 22.6524475 -108.59519381 17.18343521 -114.08526719 11.71343839 C-125.37758323 0.46292541 -136.68408255 -10.7732229 -148 -22 C-147 -24 -147 -24 -145.14916992 -24.74609375 C-143.95191284 -25.08833984 -143.95191284 -25.08833984 -142.73046875 -25.4375 C-141.8472998 -25.69184814 -140.96413086 -25.94619629 -140.05419922 -26.20825195 C-138.63518311 -26.60016724 -138.63518311 -26.60016724 -137.1875 -27 C-136.22859863 -27.2683667 -135.26969727 -27.5367334 -134.28173828 -27.81323242 C-127.56697719 -29.65573198 -120.92547081 -31.1968957 -114 -32 C-113.1646875 -32.10957031 -112.329375 -32.21914062 -111.46875 -32.33203125 C-71.8314314 -36.80913802 -30.89264502 -25.36578997 0 0 Z M359.75 583.1875 C353.14550938 591.4477125 350.57479604 601.56317541 351 612 C352.5270439 622.84928331 358.22574831 633.31719005 367 640 C377.45009855 646.56733334 387.92519133 649.33511067 400.1171875 646.8203125 C410.35826227 643.90618553 418.61675964 638.15141901 424.3125 629.125 C430.05713027 618.71579257 431.9439207 608.49592865 428.875 596.75 C426.32748345 589.35979868 421.79236345 583.19827489 416 578 C415.2575 577.319375 414.515 576.63875 413.75 575.9375 C395.73785577 563.24712566 374.36079775 567.94468301 359.75 583.1875 Z " fill="#27DA8C" transform="translate(334,190)"/>
<path d="M0 0 C8.30706695 7.43322698 15.68267336 15.35459395 22.51171875 24.1640625 C23.15560547 24.98535645 23.15560547 24.98535645 23.8125 25.82324219 C44.35501901 52.1821949 54.38094797 80.619322 56.80102539 113.77099609 C57.64054492 124.86497047 59.69137304 133.63636787 65.51171875 143.1640625 C65.80949219 143.8653125 66.10726563 144.5665625 66.4140625 145.2890625 C67.80773015 147.66970476 69.00056116 148.0833679 71.51171875 149.1640625 C74.0466277 150.69556999 76.56105408 152.25732187 79.07421875 153.82421875 C83.22864578 156.10782207 86.85960319 156.36771961 91.57421875 156.4765625 C92.61707031 156.51394531 93.65992188 156.55132812 94.734375 156.58984375 C98.29731768 156.18822974 100.91424421 155.38716842 104.24780273 154.13745117 C105.23465561 153.77004318 106.22150848 153.40263519 107.23826599 153.02409363 C107.9885054 152.74028336 108.73874481 152.45647308 109.51171875 152.1640625 C115.67167092 158.20829614 121.81812364 164.26584114 127.94764805 170.34093094 C130.79409955 173.16125988 133.645026 175.97673927 136.5065918 178.78173828 C139.26667448 181.48759678 142.01445415 184.20539741 144.75404167 186.93199921 C145.80272137 187.97142181 146.85580064 189.00642453 147.91324043 190.0369339 C149.39089491 191.47842582 150.85228619 192.93467925 152.31079102 194.39550781 C153.14796158 195.22157532 153.98513214 196.04764282 154.84767151 196.89874268 C156.51171875 199.1640625 156.51171875 199.1640625 156.43475723 200.96195889 C155.09854764 204.1497696 152.82528612 206.27026763 150.40715027 208.66304016 C149.8700892 209.20619234 149.33302812 209.74934451 148.77969247 210.30895585 C146.97506305 212.13025773 145.15985996 213.9406364 143.34448242 215.7512207 C142.04973834 217.05330245 140.75561974 218.3560064 139.46208191 219.6592865 C135.94442781 223.1991927 132.4171524 226.72936097 128.88741088 230.25721002 C125.94473312 233.19976828 123.00640504 236.14665131 120.06796151 239.0934369 C113.13886953 246.04177489 106.20161807 252.98189325 99.25952148 259.91723633 C92.08834598 267.08176407 84.93207202 274.26093651 77.78277797 281.44729358 C71.6507203 287.60998912 65.50909802 293.76303715 59.35975248 299.90848225 C55.68408892 303.58207285 52.01234669 307.2593848 48.34993553 310.94619179 C44.90790801 314.41038712 41.45415867 317.86244089 37.99084663 321.30535316 C36.71906413 322.57370836 35.45157122 323.84638088 34.18863678 325.1235466 C32.46942952 326.86078907 30.73569095 328.58205206 28.99723816 330.30000305 C28.49596647 330.81379259 27.99469478 331.32758213 27.47823304 331.85694104 C26.06260967 333.23679066 26.06260967 333.23679066 23.51171875 335.1640625 C19.50279523 335.01973508 17.57323268 332.58872078 14.83496094 329.82788086 C13.91430847 328.9070018 12.99365601 327.98612274 12.04510498 327.03733826 C11.04943956 326.02635346 10.05393968 325.0152056 9.05859375 324.00390625 C8.03363549 322.97335109 7.00801161 321.94345756 5.98175049 320.91419983 C3.28554858 318.20655658 0.59847803 315.49002478 -2.08679199 312.77154541 C-4.82974854 309.99787277 -7.58124249 307.23269821 -10.33203125 304.46679688 C-15.72584145 299.04083506 -21.11003359 293.60545507 -26.48828125 288.1640625 C-26.00472168 287.42075684 -25.52116211 286.67745117 -25.02294922 285.91162109 C-24.39018066 284.93016113 -23.75741211 283.94870117 -23.10546875 282.9375 C-22.47753418 281.96731934 -21.84959961 280.99713867 -21.20263672 279.99755859 C-15.96908838 271.34752128 -14.05148104 261.87186693 -16.171875 251.97265625 C-17.94324381 245.6295389 -19.98980808 240.65363421 -24.31640625 235.65234375 C-25.48828125 234.1640625 -25.48828125 234.1640625 -25.48828125 232.1640625 C-26.0503125 231.8959375 -26.61234375 231.6278125 -27.19140625 231.3515625 C-29.64020047 230.08551923 -31.91356879 228.64477107 -34.23828125 227.1640625 C-43.16022203 221.83170722 -52.35645129 220.6734297 -62.609375 222.81640625 C-75.62639523 226.68005684 -84.31577969 236.71310045 -93.6171875 246.09765625 C-94.85941797 247.34362449 -96.10209639 248.58914626 -97.34519958 249.83424377 C-100.58984576 253.0864663 -103.82843629 256.34465273 -107.06573486 259.60418701 C-110.38062948 262.9396704 -113.70130969 266.26938326 -117.02148438 269.59960938 C-123.51604076 276.11550961 -130.00420421 282.63773517 -136.48828125 289.1640625 C-140.04564637 287.64749181 -142.34454108 285.56595909 -145.0761261 282.85037231 C-145.99179855 281.94467499 -146.90747101 281.03897766 -147.85089111 280.10583496 C-148.85814436 279.09947745 -149.86528159 278.09300382 -150.87231445 277.08642578 C-151.93816187 276.02820103 -153.00441042 274.97038016 -154.07102966 273.91293335 C-156.96406114 271.04183438 -159.85050432 268.16420014 -162.73513055 265.28465891 C-164.53653997 263.48689243 -166.33924073 261.6904312 -168.14238548 259.89440536 C-174.4295031 253.6317712 -180.71088933 247.36344698 -186.98754883 241.09033203 C-192.84478696 235.23673543 -198.715045 229.39641981 -204.59133273 223.56195271 C-209.63289895 218.55501742 -214.66486207 213.53856593 -219.68949193 208.51463497 C-222.69215129 205.51277042 -225.69869706 202.51505865 -228.71511269 199.52701187 C-231.54885924 196.71932488 -234.37052833 193.90005007 -237.18320656 191.07126236 C-238.21935319 190.03329196 -239.25981686 188.9996112 -240.30477524 187.97051239 C-241.7264401 186.56912482 -243.13141448 185.15086416 -244.53535461 183.73171997 C-245.32751027 182.94157564 -246.11966593 182.15143131 -246.9358263 181.33734322 C-248.48828125 179.1640625 -248.48828125 179.1640625 -248.44522858 177.10933876 C-247.29653272 174.77427735 -245.98417444 173.30260826 -244.13005066 171.47198486 C-243.41083939 170.75443024 -242.69162811 170.03687561 -241.95062256 169.2975769 C-240.75919647 168.13175583 -240.75919647 168.13175583 -239.54370117 166.94238281 C-238.29490929 165.70257156 -238.29490929 165.70257156 -237.02088928 164.43771362 C-234.73652542 162.17198991 -232.44577764 159.91294594 -230.15271163 157.65603733 C-227.75106285 155.28807249 -225.35950097 152.90997398 -222.96736145 150.53240967 C-215.84673599 143.45883527 -208.71116513 136.40038765 -201.57098389 129.34655762 C-196.02661507 123.86900384 -190.48683831 118.38697624 -184.96079904 112.89092326 C-181.66047131 109.60967693 -178.34543957 106.34373391 -175.02787781 103.07989502 C-173.29164206 101.35499878 -171.55599951 99.62950518 -169.82104492 97.90332031 C-169.03283356 97.13420319 -168.24462219 96.36508606 -167.43252563 95.57266235 C-159.70884482 87.83663528 -155.35078437 79.34051237 -155.10766602 68.16503906 C-155.15747919 49.30533899 -162.9484995 33.31957297 -175.88134766 19.75927734 C-185.46650874 10.24401716 -196.52439113 3.27501001 -208.48828125 -2.8359375 C-209.12362793 -3.17044922 -209.75897461 -3.50496094 -210.41357422 -3.84960938 C-241.40539572 -20.06874167 -276.24951787 -25.90306596 -310.48828125 -30.8359375 C-241.85920984 -104.78742356 -89.18252594 -67.14047172 0 0 Z " fill="#27DB8D" transform="translate(753.48828125,209.8359375)"/>
<path d="M0 0 C3.55736512 1.51657069 5.85625983 3.59810341 8.58784485 6.31369019 C9.96135353 7.67223618 9.96135353 7.67223618 11.36260986 9.05822754 C12.36986311 10.06458505 13.37700034 11.07105868 14.3840332 12.07763672 C15.44988062 13.13586147 16.51612917 14.19368234 17.58274841 15.25112915 C20.47577989 18.12222812 23.36222307 20.99986236 26.2468493 23.87940359 C28.04825872 25.67717007 29.85095948 27.4736313 31.65410423 29.26965714 C37.94122185 35.5322913 44.22260808 41.80061552 50.49926758 48.07373047 C56.35650571 53.92732707 62.22676375 59.76764269 68.10305148 65.60210979 C73.1446177 70.60904508 78.17658082 75.62549657 83.20121068 80.64942753 C86.20387004 83.65129208 89.21041581 86.64900385 92.22683144 89.63705063 C95.06057799 92.44473762 97.88224708 95.26401243 100.69492531 98.09280014 C101.73107194 99.13077054 102.77153561 100.1644513 103.81649399 101.19355011 C105.23815885 102.59493768 106.64313323 104.01319834 108.04707336 105.43234253 C108.83922902 106.22248686 109.63138468 107.01263119 110.44754505 107.82671928 C112 110 112 110 111.76890767 111.9403556 C110.90880712 114.24427498 109.98156852 115.39430317 108.24993229 117.12759113 C107.66193098 117.72341568 107.07392967 118.31924023 106.46811014 118.93312007 C105.81638297 119.57815508 105.1646558 120.22319008 104.49317932 120.88777161 C103.80517665 121.58045425 103.11717399 122.27313689 102.40832275 122.98680991 C100.09255779 125.31457558 97.76617443 127.63143048 95.43969727 129.94848633 C93.78029531 131.61195193 92.12153256 133.27605539 90.46336365 134.94075012 C85.94926233 139.46856165 81.42568094 143.98679072 76.89997602 148.5030005 C72.64411728 152.750839 68.3954708 157.00588795 64.14582156 161.25993653 C55.20808046 170.20623817 46.26115802 179.14331239 37.31108373 188.07727327 C29.6439957 195.73098378 21.98477053 203.39248888 14.33129883 211.05981445 C5.43865004 219.96855273 -3.45889112 228.87235807 -12.36418301 237.7684595 C-13.31586991 238.71919081 -14.26755058 239.66992836 -15.21922493 240.62067223 C-15.68742157 241.08840604 -16.1556182 241.55613985 -16.63800262 242.03804741 C-19.92475721 245.32222023 -23.20796071 248.60991727 -26.48995781 251.89884377 C-30.91952351 256.33710669 -35.35642381 260.76790687 -39.79897118 265.19317436 C-41.42444796 266.81469961 -43.04740553 268.43875494 -44.66758347 270.06557465 C-60.40240411 285.85891493 -60.40240411 285.85891493 -69 291 C-69.59474341 291.36277448 -70.18948683 291.72554895 -70.80225277 292.0993166 C-88.65065571 302.49192564 -110.32624861 305.33579587 -130.4375 300.5 C-141.86387353 297.16780007 -152.91973206 291.74620014 -162 284 C-162.56460938 283.5771875 -163.12921875 283.154375 -163.7109375 282.71875 C-178.41771129 271.27275411 -187.33058755 251.5205934 -189.75 233.375 C-189.85692065 231.91820608 -189.93908418 230.45944161 -190 229 C-190.0515625 228.12472656 -190.103125 227.24945312 -190.15625 226.34765625 C-190.88854699 203.61593711 -181.95380218 183.74286525 -167 167 C-161.68851649 161.33901903 -156.14969447 155.89613075 -150.64819336 150.42114258 C-149.00113657 148.77465082 -147.35452181 147.12771678 -145.70831299 145.4803772 C-141.26510626 141.03659957 -136.8157856 136.5989905 -132.36529613 132.16250825 C-127.70522805 127.51499156 -123.05086999 122.86176344 -118.39588928 118.20915222 C-110.59096414 110.40939251 -102.7822299 102.6134609 -94.97094727 94.82006836 C-86.93017404 86.79769154 -78.89153272 78.77318825 -70.85571289 70.74584961 C-70.35924914 70.24991131 -69.86278539 69.753973 -69.35127728 69.24300627 C-66.86033858 66.75467789 -64.36944135 64.26630801 -61.87856472 61.7779175 C-41.25880085 41.17884106 -20.63172254 20.58709868 0 0 Z " fill="#27DA8C" transform="translate(311,580)"/>
</svg>
